<svg width="79" height="53" viewBox="0 0 79 53" fill="none" xmlns="http://www.w3.org/2000/svg">
<path d="M16.3996 21.312L16.2716 13.76H7.88763C7.84496 16.96 7.82363 19.3493 7.82363 20.928L10.0316 21.216C10.0316 22.0907 9.78629 23.0187 9.29563 24H1.51963L1.23163 22.24C2.42629 21.7493 3.32229 21.44 3.91963 21.312C3.91963 21.248 3.82363 15.6053 3.63163 4.384L0.975625 3.552L1.23163 1.6H9.51963C9.86096 2.176 10.0636 3.01867 10.1276 4.128C9.03963 4.29867 8.32496 4.40533 7.98363 4.448C7.94096 7.22133 7.91963 9.30133 7.91963 10.688H16.2076L16.1116 4.384L13.4556 3.552L13.7116 1.6H21.9996C22.341 2.176 22.5436 3.01867 22.6076 4.128C21.5196 4.29867 20.805 4.40533 20.4636 4.448L20.3036 20.928L22.5116 21.216C22.5116 22.0907 22.2663 23.0187 21.7756 24H13.9996L13.7116 22.24C14.9063 21.7493 15.8023 21.44 16.3996 21.312ZM33.2681 9.92C32.5001 9.92 31.6255 10.112 30.6441 10.496C30.3668 10.9227 30.1001 11.68 29.8441 12.768C29.6095 13.8347 29.4921 14.912 29.4921 16C29.4921 18.0053 29.7908 19.4347 30.3881 20.288C30.9855 21.12 31.9455 21.536 33.2681 21.536C34.6121 21.536 35.5828 21.12 36.1801 20.288C36.7775 19.4347 37.0761 17.984 37.0761 15.936C37.0761 13.8667 36.7668 12.352 36.1481 11.392C35.5508 10.4107 34.5908 9.92 33.2681 9.92ZM33.2681 7.36C35.7641 7.36 37.7695 8.128 39.2841 9.664C40.8201 11.1787 41.5881 13.3013 41.5881 16.032C41.5881 18.7413 40.8308 20.8107 39.3161 22.24C37.8015 23.6693 35.7855 24.384 33.2681 24.384C30.7508 24.384 28.7348 23.6693 27.2201 22.24C25.7268 20.8107 24.9801 18.7413 24.9801 16.032C24.9801 13.3013 25.7375 11.1787 27.2521 9.664C28.7668 8.128 30.7721 7.36 33.2681 7.36ZM45.9109 24.384L45.2069 24.352C45.0789 24.1173 44.9082 23.68 44.6949 23.04C44.4815 22.4 44.3642 21.92 44.3429 21.6C44.2362 19.488 44.1189 15.8293 43.9909 10.624H41.7509L41.8469 8.8C42.3375 8.45867 42.9242 8.14933 43.6069 7.872L46.1989 3.776C47.0309 3.86133 47.6815 4.08533 48.1509 4.448L48.1189 7.488C49.4629 7.53067 50.7109 7.65867 51.8629 7.872C51.8629 8.72533 51.5962 9.64267 51.0629 10.624H48.0869C48.0015 15.104 47.9482 18.464 47.9269 20.704C48.7802 20.7893 49.9429 21.0347 51.4149 21.44L51.3829 23.104C51.0202 23.3387 50.2095 23.616 48.9509 23.936C47.7135 24.2347 46.7002 24.384 45.9109 24.384ZM61.6759 21.248C62.4012 21.248 63.8732 20.7467 66.0919 19.744C66.5612 20.4267 66.9132 21.216 67.1479 22.112C65.9745 22.8373 64.8225 23.4027 63.6919 23.808C62.5825 24.192 61.7932 24.384 61.3239 24.384C58.7425 24.384 56.7799 23.6693 55.4359 22.24C54.1132 20.8107 53.4519 18.784 53.4519 16.16C53.4519 13.5147 54.1132 11.392 55.4359 9.792C56.7585 8.17067 58.7212 7.36 61.3239 7.36C63.3932 7.36 64.9719 8.032 66.0599 9.376C67.1479 10.72 67.6919 12.4693 67.6919 14.624C67.6919 15.072 67.4359 15.584 66.9239 16.16L57.7079 16C57.7505 17.7067 58.0705 19.008 58.6679 19.904C59.2652 20.8 60.2679 21.248 61.6759 21.248ZM61.0359 10.016C60.2252 10.016 59.4679 10.176 58.7639 10.496C58.2732 11.52 57.9639 12.4693 57.8359 13.344C59.4999 13.28 61.3879 13.2373 63.4999 13.216C63.3932 11.0827 62.5719 10.016 61.0359 10.016ZM75.8429 0.223999C76.2482 0.223999 76.5042 0.234666 76.6109 0.255999C76.6109 1.36533 76.4722 2.336 76.1949 3.168C76.1735 4.49067 76.1415 6.35733 76.0989 8.768C76.0135 14.0587 75.9495 18.112 75.9069 20.928L78.4029 21.216C78.4029 22.0907 78.1575 23.0187 77.6669 24H69.6989L69.4109 22.24C70.7335 21.7493 71.6935 21.4293 72.2909 21.28L71.6829 3.52C70.6802 3.41333 69.8375 3.25333 69.1549 3.04C69.1549 2.25067 69.2295 1.48267 69.3789 0.735998C70.6375 0.394665 72.7922 0.223999 75.8429 0.223999ZM18.0065 39.176C18.5185 39.0907 18.9025 39.048 19.1585 39.048C19.4358 39.048 20.0225 39.1227 20.9185 39.272C21.0038 39.4427 21.1212 39.9867 21.2705 40.904C21.4412 41.8213 21.5265 42.568 21.5265 43.144C21.5265 43.6987 21.4625 44.3173 21.3345 45H5.8145L5.5265 43.24C6.57183 42.8133 7.46783 42.504 8.2145 42.312C8.2145 42.248 8.1185 36.6053 7.9265 25.384L5.2705 24.552L5.5265 22.6H13.8465C13.8252 22.6 13.8252 22.6213 13.8465 22.664C13.8892 22.7067 13.9318 22.8027 13.9745 22.952C14.0385 23.08 14.1025 23.24 14.1665 23.432C14.2945 23.7733 14.3798 24.3387 14.4225 25.128C13.3345 25.2987 12.6198 25.4053 12.2785 25.448C12.1932 32.808 12.1398 38.3013 12.1185 41.928H17.3025L18.0065 39.176ZM31.44 30.92C30.672 30.92 29.7973 31.112 28.816 31.496C28.5387 31.9227 28.272 32.68 28.016 33.768C27.7813 34.8347 27.664 35.912 27.664 37C27.664 39.0053 27.9627 40.4347 28.56 41.288C29.1573 42.12 30.1173 42.536 31.44 42.536C32.784 42.536 33.7547 42.12 34.352 41.288C34.9493 40.4347 35.248 38.984 35.248 36.936C35.248 34.8667 34.9387 33.352 34.32 32.392C33.7227 31.4107 32.7627 30.92 31.44 30.92ZM31.44 28.36C33.936 28.36 35.9413 29.128 37.456 30.664C38.992 32.1787 39.76 34.3013 39.76 37.032C39.76 39.7413 39.0027 41.8107 37.488 43.24C35.9733 44.6693 33.9573 45.384 31.44 45.384C28.9227 45.384 26.9067 44.6693 25.392 43.24C23.8987 41.8107 23.152 39.7413 23.152 37.032C23.152 34.3013 23.9093 32.1787 25.424 30.664C26.9387 29.128 28.944 28.36 31.44 28.36ZM53.1068 39.464C52.4028 39.912 51.6561 40.2427 50.8668 40.456C50.0774 40.648 49.3094 40.744 48.5628 40.744C47.8374 40.744 47.1974 40.6693 46.6428 40.52C46.4081 41.0747 46.1841 41.4907 45.9708 41.768C46.1414 42.024 47.9334 42.152 51.3468 42.152C53.4801 42.152 54.9841 42.4827 55.8588 43.144C56.2641 43.4213 56.6161 43.8587 56.9148 44.456C57.2348 45.0533 57.3948 45.8213 57.3948 46.76C57.3948 47.72 56.9254 48.68 55.9868 49.64C55.0481 50.6 53.8748 51.3573 52.4668 51.912C51.0588 52.4667 49.6614 52.744 48.2748 52.744C45.9708 52.744 44.1041 52.2853 42.6748 51.368C41.2454 50.472 40.5308 49.352 40.5308 48.008C40.5308 47.752 40.9041 47.1227 41.6508 46.12C42.3974 45.1387 42.8881 44.5733 43.1228 44.424C42.9094 44.3173 42.5361 43.9653 42.0028 43.368C41.4694 42.7493 41.1708 42.312 41.1068 42.056C41.3841 41.288 42.2374 40.328 43.6668 39.176C42.0028 38.1733 41.1708 36.488 41.1708 34.12C41.1708 32.2427 41.8108 30.8133 43.0908 29.832C44.3921 28.8507 46.0988 28.36 48.2108 28.36C50.3441 28.36 51.9548 28.648 53.0428 29.224C54.8561 28.904 56.1361 28.744 56.8828 28.744C57.6508 28.744 58.1521 28.7547 58.3868 28.776C58.3868 29.288 58.2588 29.8747 58.0028 30.536C57.7681 31.176 57.5441 31.624 57.3308 31.88L54.5788 31.24C55.1121 32.008 55.3787 33 55.3787 34.216C55.3787 35.432 55.1761 36.4987 54.7708 37.416C54.3654 38.312 53.8108 38.9947 53.1068 39.464ZM52.9468 48.616C53.0961 48.2107 53.1708 47.7413 53.1708 47.208C53.1708 46.6747 52.9361 46.28 52.4668 46.024C51.9974 45.7893 51.4428 45.672 50.8028 45.672C48.3068 45.672 46.6534 45.6507 45.8428 45.608C45.6721 45.9707 45.4588 46.4827 45.2028 47.144C44.9468 47.8267 44.8188 48.232 44.8188 48.36C44.8188 48.488 44.9041 48.6693 45.0748 48.904C45.2454 49.16 45.6081 49.4267 46.1628 49.704C46.7388 49.9813 47.4321 50.12 48.2428 50.12C49.0748 50.12 50.0454 49.928 51.1548 49.544C52.2641 49.16 52.8614 48.8507 52.9468 48.616ZM50.3548 31.624C49.8641 31.048 49.1708 30.76 48.2748 30.76C47.3788 30.76 46.6748 31.048 46.1628 31.624C45.6721 32.2 45.4268 33.0427 45.4268 34.152C45.4268 35.24 45.6828 36.0933 46.1948 36.712C46.7068 37.3307 47.4001 37.64 48.2748 37.64C50.1734 37.64 51.1228 36.4667 51.1228 34.12C51.1228 33.032 50.8668 32.2 50.3548 31.624ZM67.1588 30.92C66.3908 30.92 65.5161 31.112 64.5348 31.496C64.2574 31.9227 63.9908 32.68 63.7348 33.768C63.5001 34.8347 63.3828 35.912 63.3828 37C63.3828 39.0053 63.6814 40.4347 64.2788 41.288C64.8761 42.12 65.8361 42.536 67.1588 42.536C68.5028 42.536 69.4734 42.12 70.0708 41.288C70.6681 40.4347 70.9668 38.984 70.9668 36.936C70.9668 34.8667 70.6574 33.352 70.0388 32.392C69.4414 31.4107 68.4814 30.92 67.1588 30.92ZM67.1588 28.36C69.6548 28.36 71.6601 29.128 73.1748 30.664C74.7108 32.1787 75.4788 34.3013 75.4788 37.032C75.4788 39.7413 74.7214 41.8107 73.2068 43.24C71.6921 44.6693 69.6761 45.384 67.1588 45.384C64.6414 45.384 62.6254 44.6693 61.1108 43.24C59.6174 41.8107 58.8708 39.7413 58.8708 37.032C58.8708 34.3013 59.6281 32.1787 61.1428 30.664C62.6574 29.128 64.6628 28.36 67.1588 28.36Z" fill="#262626"/>
</svg>
